<svg width="17" height="17" viewBox="0 0 17 17" fill="white" xmlns="http://www.w3.org/2000/svg">
<path d="M15.8444 5.18194L14.4038 6.62257C14.2569 6.76944 14.0194 6.76944 13.8725 6.62257L10.4038 3.15381C10.2569 3.00694 10.2569 2.76944 10.4038 2.62256L11.8444 1.18193C12.4288 0.597558 13.3788 0.597558 13.9663 1.18193L15.8444 3.06006C16.4319 3.64444 16.4319 4.59444 15.8444 5.18194ZM9.16628 3.86006L0.960026 12.0663L0.297526 15.8632C0.206901 16.3757 0.653776 16.8195 1.16628 16.732L4.96315 16.0663L13.1694 7.86007C13.3163 7.71319 13.3163 7.47569 13.1694 7.32882L9.70065 3.86006C9.55065 3.71319 9.31315 3.71319 9.16628 3.86006ZM3.03503 13.9913H4.53503V15.1257L2.5194 15.4788L1.54753 14.5069L1.90065 12.4913H3.03503V13.9913Z" fill="#DBDBDB"/>
</svg>
